<svg xmlns="http://www.w3.org/2000/svg" class="wr-theme-logo-svg" fill="none" viewBox="0 0 32 32">
                                <path fill="#fdb022" class="wr-logo-icon" d="M23.634 1.935A30.868 30.868 0 0 1 27 16c0 5.064-1.214 9.844-3.367 14.066C28.618 27.355 32 22.072 32 16S28.618 4.645 23.634 1.935ZM16.44 1.6C15.714.573 14.482.021 13.245.235 5.722 1.542.001 8.103.001 16c0 7.897 5.721 14.458 13.245 15.764 1.236.214 2.47-.338 3.193-1.363A24.886 24.886 0 0 0 21.001 16c0-5.362-1.688-10.33-4.562-14.4Z"/>
                            </svg>